<svg width="1142" height="596" viewBox="0 0 1142 596" fill="none" xmlns="http://www.w3.org/2000/svg">
<path opacity="0.7" d="M1541.81 -101.383L1540.39 -104.944L1536.63 -105.663L21.3123 -394.876L10.2616 -396.985L13.2518 -386.139C35.5047 -305.427 48.4273 -214.015 61.7767 -119.585C67.9354 -76.0197 74.1849 -31.812 81.4833 12.2836C104.495 151.318 137.899 288.588 212.409 396.535C297.791 520.233 475.81 573.697 664.982 558.466C783.253 558.402 846.194 518.471 896.643 475.19C906.44 466.785 915.678 458.362 924.688 450.148C962.254 415.898 995.853 385.266 1049.47 374.578C1082.99 367.897 1116.85 368.249 1151.89 370.014C1159.74 370.409 1167.66 370.877 1175.65 371.349C1203.08 372.97 1231.3 374.637 1260 373.569C1334.88 370.784 1413.75 349.413 1499.12 262.138C1566.27 193.484 1576.56 102.002 1570.51 28.7371C1567.48 -7.98907 1560.33 -40.4537 1553.94 -63.7291C1550.74 -75.3752 1547.73 -84.743 1545.51 -91.2192C1544.39 -94.4578 1543.48 -96.9749 1542.84 -98.694C1542.52 -99.5537 1542.27 -100.214 1542.1 -100.665C1542.01 -100.891 1541.94 -101.064 1541.89 -101.184L1541.84 -101.324L1541.82 -101.364L1541.82 -101.376C1541.82 -101.38 1541.81 -101.383 1535.31 -98.7874L1541.81 -101.383Z" stroke="url(#paint0_linear_621_2)" stroke-width="14"/>
<path d="M1501.31 -108.628C1501.31 -108.628 1587.32 106.711 1461.5 235.289C1299.22 401.137 1163.5 315.5 1030.5 342C897.5 368.5 884.956 519.5 660 519.5C478.206 534.197 309.07 482.682 228.5 366C86.3091 160.078 100.091 -159.252 37 -388L1501.31 -108.628Z" fill="url(#paint1_linear_621_2)" fill-opacity="0.2"/>
<rect x="333" y="225" width="315" height="184" rx="30" fill="url(#paint2_linear_621_2)"/>
<mask id="mask0_621_2" style="mask-type:alpha" maskUnits="userSpaceOnUse" x="333" y="225" width="315" height="184">
<rect x="333" y="225" width="315" height="184" rx="30" fill="#BE82DD"/>
</mask>
<g mask="url(#mask0_621_2)">
<ellipse opacity="0.1" cx="357.5" cy="438" rx="160.5" ry="113" fill="black"/>
<ellipse opacity="0.08" cx="623.5" cy="196" rx="160.5" ry="113" fill="black"/>
</g>
<path d="M581.657 374.76L578.451 375.81L578.815 377.112L580.691 376.51V384H582.175V374.76H581.657ZM587.43 382.712L589.054 380.99C589.698 380.304 590.188 379.716 590.51 379.198C590.846 378.68 591.014 378.106 591.014 377.476C591.014 375.852 589.712 374.606 587.948 374.606C586.058 374.606 584.84 376.048 584.84 377.56C584.84 377.84 584.868 378.106 584.938 378.358H586.436C586.394 378.078 586.366 377.84 586.366 377.644C586.366 376.692 586.996 375.964 587.934 375.964C588.872 375.964 589.474 376.65 589.474 377.588C589.474 378.372 589.026 379.044 588.004 380.122L584.714 383.664V384H591.336V382.712H587.43ZM592.652 385.694H594.29L601.612 373.08H599.974L592.652 385.694ZM604.987 382.712L606.611 380.99C607.255 380.304 607.745 379.716 608.067 379.198C608.403 378.68 608.571 378.106 608.571 377.476C608.571 375.852 607.269 374.606 605.505 374.606C603.615 374.606 602.397 376.048 602.397 377.56C602.397 377.84 602.425 378.106 602.495 378.358H603.993C603.951 378.078 603.923 377.84 603.923 377.644C603.923 376.692 604.553 375.964 605.491 375.964C606.429 375.964 607.031 376.65 607.031 377.588C607.031 378.372 606.583 379.044 605.561 380.122L602.271 383.664V384H608.893V382.712H604.987ZM617.755 381.116H616.495V378.274H615.011V381.116H612.253L614.871 374.76H613.345L610.391 381.984V382.39H615.011V384H616.495V382.39H617.755V381.116Z" fill="white"/>
<path opacity="0.9" d="M370.14 381.018C370.14 379.156 368.642 378.134 366.99 378.134C366.57 378.134 366.178 378.176 365.814 378.26V376.09H369.622V374.76H364.358V379.408H366.486C367.844 379.408 368.614 379.996 368.614 381.046C368.614 382.11 367.802 382.796 366.696 382.796C365.702 382.796 365.016 382.278 364.456 381.424L363.42 382.166C364.05 383.356 365.212 384.154 366.738 384.154C368.572 384.154 370.14 382.88 370.14 381.018ZM374.68 382.712L376.304 380.99C376.948 380.304 377.438 379.716 377.76 379.198C378.096 378.68 378.264 378.106 378.264 377.476C378.264 375.852 376.962 374.606 375.198 374.606C373.308 374.606 372.09 376.048 372.09 377.56C372.09 377.84 372.118 378.106 372.188 378.358H373.686C373.644 378.078 373.616 377.84 373.616 377.644C373.616 376.692 374.246 375.964 375.184 375.964C376.122 375.964 376.724 376.65 376.724 377.588C376.724 378.372 376.276 379.044 375.254 380.122L371.964 383.664V384H378.586V382.712H374.68ZM387 377.812C387.042 375.992 385.488 374.578 383.738 374.606C381.974 374.606 380.462 375.992 380.462 377.798C380.462 379.548 381.904 380.892 383.486 380.892C383.64 380.892 383.766 380.878 383.892 380.85L381.666 384H383.43L385.726 380.738C386.048 380.29 386.286 379.94 386.44 379.688C386.594 379.422 386.734 379.142 386.832 378.834C386.944 378.512 387 378.176 387 377.812ZM385.53 377.798C385.53 378.316 385.362 378.75 385.012 379.1C384.662 379.45 384.242 379.632 383.738 379.632C383.22 379.632 382.786 379.464 382.436 379.114C382.086 378.764 381.918 378.316 381.918 377.798C381.918 377.28 382.086 376.846 382.436 376.496C382.786 376.146 383.22 375.964 383.738 375.964C384.242 375.964 384.662 376.146 385.012 376.496C385.362 376.846 385.53 377.28 385.53 377.798ZM395.727 381.116H394.467V378.274H392.983V381.116H390.225L392.843 374.76H391.317L388.363 381.984V382.39H392.983V384H394.467V382.39H395.727V381.116ZM404.256 382.712L405.88 380.99C406.524 380.304 407.014 379.716 407.336 379.198C407.672 378.68 407.84 378.106 407.84 377.476C407.84 375.852 406.538 374.606 404.774 374.606C402.884 374.606 401.666 376.048 401.666 377.56C401.666 377.84 401.694 378.106 401.764 378.358H403.262C403.22 378.078 403.192 377.84 403.192 377.644C403.192 376.692 403.822 375.964 404.76 375.964C405.698 375.964 406.3 376.65 406.3 377.588C406.3 378.372 405.852 379.044 404.83 380.122L401.54 383.664V384H408.162V382.712H404.256ZM417.024 381.116H415.764V378.274H414.28V381.116H411.522L414.14 374.76H412.614L409.66 381.984V382.39H414.28V384H415.764V382.39H417.024V381.116ZM424.686 381.032C424.686 380.234 424.448 379.59 423.972 379.1C423.496 378.61 422.922 378.302 422.236 378.19L424.476 375.166V374.76H418.722V376.118H422.166L420.01 379.016V379.422H421.032C422.39 379.422 423.16 379.996 423.16 381.046C423.16 382.096 422.376 382.796 421.27 382.796C420.318 382.796 419.66 382.278 419.1 381.424L418.064 382.152C418.68 383.342 419.814 384.154 421.312 384.154C423.132 384.154 424.686 382.908 424.686 381.032ZM433.039 380.962C433.039 379.212 431.611 377.868 430.001 377.868C429.847 377.868 429.721 377.882 429.595 377.91L431.821 374.76H430.071L427.761 378.022C427.439 378.484 427.201 378.834 427.047 379.086C426.893 379.338 426.767 379.618 426.655 379.94C426.557 380.248 426.501 380.584 426.501 380.948C426.459 382.768 428.013 384.182 429.763 384.154C431.527 384.154 433.039 382.768 433.039 380.962ZM431.569 380.962C431.569 381.48 431.387 381.928 431.037 382.278C430.687 382.628 430.267 382.796 429.763 382.796C429.245 382.796 428.825 382.628 428.475 382.278C428.125 381.928 427.957 381.48 427.957 380.962C427.957 380.444 428.125 380.01 428.475 379.66C428.825 379.31 429.245 379.128 429.763 379.128C430.267 379.128 430.687 379.31 431.037 379.66C431.387 380.01 431.569 380.444 431.569 380.962ZM446.19 381.116H444.93V378.274H443.446V381.116H440.688L443.306 374.76H441.78L438.826 381.984V382.39H443.446V384H444.93V382.39H446.19V381.116ZM447.166 374.76V376.09H451.506L447.432 384H449.042L453.508 375.166V374.76H447.166ZM461.35 381.592C461.35 380.416 460.566 379.646 459.348 379.198C460.37 378.652 460.916 377.938 460.916 376.972C460.916 376.23 460.636 375.642 460.09 375.236C459.544 374.816 458.844 374.606 458.004 374.606C457.15 374.606 456.45 374.816 455.89 375.236C455.344 375.642 455.064 376.23 455.064 376.972C455.064 377.966 455.624 378.652 456.632 379.198C455.4 379.646 454.63 380.416 454.63 381.592C454.63 383.146 456.016 384.154 458.004 384.154C459.978 384.154 461.35 383.146 461.35 381.592ZM456.478 377.028C456.478 376.286 457.108 375.824 458.004 375.824C458.886 375.824 459.502 376.286 459.502 377.028C459.502 377.714 459.04 378.078 457.99 378.526C456.94 378.064 456.478 377.7 456.478 377.028ZM459.852 381.536C459.852 382.376 459.194 382.922 458.004 382.922C456.814 382.922 456.128 382.376 456.128 381.536C456.128 380.71 456.758 380.276 457.99 379.842C459.222 380.29 459.852 380.696 459.852 381.536ZM463.432 379.296C463.432 382.026 464.594 384.154 466.96 384.154C469.34 384.154 470.474 382.026 470.474 379.296C470.474 377.882 470.18 376.748 469.578 375.894C468.99 375.04 468.122 374.606 466.96 374.606C465.798 374.606 464.93 375.04 464.328 375.908C463.726 376.762 463.432 377.896 463.432 379.296ZM468.934 379.31C468.934 381.494 468.318 382.796 466.96 382.796C465.602 382.796 464.972 381.494 464.972 379.31C464.972 377.084 465.63 375.964 466.96 375.964C468.276 375.964 468.934 377.084 468.934 379.31ZM479.612 382.712L481.236 380.99C481.88 380.304 482.37 379.716 482.692 379.198C483.028 378.68 483.196 378.106 483.196 377.476C483.196 375.852 481.894 374.606 480.13 374.606C478.24 374.606 477.022 376.048 477.022 377.56C477.022 377.84 477.05 378.106 477.12 378.358H478.618C478.576 378.078 478.548 377.84 478.548 377.644C478.548 376.692 479.178 375.964 480.116 375.964C481.054 375.964 481.656 376.65 481.656 377.588C481.656 378.372 481.208 379.044 480.186 380.122L476.896 383.664V384H483.518V382.712H479.612ZM492.38 381.116H491.12V378.274H489.636V381.116H486.878L489.496 374.76H487.97L485.016 381.984V382.39H489.636V384H491.12V382.39H492.38V381.116ZM500.293 380.962C500.293 379.212 498.865 377.868 497.255 377.868C497.101 377.868 496.975 377.882 496.849 377.91L499.075 374.76H497.325L495.015 378.022C494.693 378.484 494.455 378.834 494.301 379.086C494.147 379.338 494.021 379.618 493.909 379.94C493.811 380.248 493.755 380.584 493.755 380.948C493.713 382.768 495.267 384.182 497.017 384.154C498.781 384.154 500.293 382.768 500.293 380.962ZM498.823 380.962C498.823 381.48 498.641 381.928 498.291 382.278C497.941 382.628 497.521 382.796 497.017 382.796C496.499 382.796 496.079 382.628 495.729 382.278C495.379 381.928 495.211 381.48 495.211 380.962C495.211 380.444 495.379 380.01 495.729 379.66C496.079 379.31 496.499 379.128 497.017 379.128C497.521 379.128 497.941 379.31 498.291 379.66C498.641 380.01 498.823 380.444 498.823 380.962ZM508.838 381.592C508.838 380.416 508.054 379.646 506.836 379.198C507.858 378.652 508.404 377.938 508.404 376.972C508.404 376.23 508.124 375.642 507.578 375.236C507.032 374.816 506.332 374.606 505.492 374.606C504.638 374.606 503.938 374.816 503.378 375.236C502.832 375.642 502.552 376.23 502.552 376.972C502.552 377.966 503.112 378.652 504.12 379.198C502.888 379.646 502.118 380.416 502.118 381.592C502.118 383.146 503.504 384.154 505.492 384.154C507.466 384.154 508.838 383.146 508.838 381.592ZM503.966 377.028C503.966 376.286 504.596 375.824 505.492 375.824C506.374 375.824 506.99 376.286 506.99 377.028C506.99 377.714 506.528 378.078 505.478 378.526C504.428 378.064 503.966 377.7 503.966 377.028ZM507.34 381.536C507.34 382.376 506.682 382.922 505.492 382.922C504.302 382.922 503.616 382.376 503.616 381.536C503.616 380.71 504.246 380.276 505.478 379.842C506.71 380.29 507.34 380.696 507.34 381.536Z" fill="white"/>
<path opacity="0.9" d="M370.14 381.018C370.14 379.156 368.642 378.134 366.99 378.134C366.57 378.134 366.178 378.176 365.814 378.26V376.09H369.622V374.76H364.358V379.408H366.486C367.844 379.408 368.614 379.996 368.614 381.046C368.614 382.11 367.802 382.796 366.696 382.796C365.702 382.796 365.016 382.278 364.456 381.424L363.42 382.166C364.05 383.356 365.212 384.154 366.738 384.154C368.572 384.154 370.14 382.88 370.14 381.018ZM374.68 382.712L376.304 380.99C376.948 380.304 377.438 379.716 377.76 379.198C378.096 378.68 378.264 378.106 378.264 377.476C378.264 375.852 376.962 374.606 375.198 374.606C373.308 374.606 372.09 376.048 372.09 377.56C372.09 377.84 372.118 378.106 372.188 378.358H373.686C373.644 378.078 373.616 377.84 373.616 377.644C373.616 376.692 374.246 375.964 375.184 375.964C376.122 375.964 376.724 376.65 376.724 377.588C376.724 378.372 376.276 379.044 375.254 380.122L371.964 383.664V384H378.586V382.712H374.68ZM387 377.812C387.042 375.992 385.488 374.578 383.738 374.606C381.974 374.606 380.462 375.992 380.462 377.798C380.462 379.548 381.904 380.892 383.486 380.892C383.64 380.892 383.766 380.878 383.892 380.85L381.666 384H383.43L385.726 380.738C386.048 380.29 386.286 379.94 386.44 379.688C386.594 379.422 386.734 379.142 386.832 378.834C386.944 378.512 387 378.176 387 377.812ZM385.53 377.798C385.53 378.316 385.362 378.75 385.012 379.1C384.662 379.45 384.242 379.632 383.738 379.632C383.22 379.632 382.786 379.464 382.436 379.114C382.086 378.764 381.918 378.316 381.918 377.798C381.918 377.28 382.086 376.846 382.436 376.496C382.786 376.146 383.22 375.964 383.738 375.964C384.242 375.964 384.662 376.146 385.012 376.496C385.362 376.846 385.53 377.28 385.53 377.798ZM395.727 381.116H394.467V378.274H392.983V381.116H390.225L392.843 374.76H391.317L388.363 381.984V382.39H392.983V384H394.467V382.39H395.727V381.116ZM404.256 382.712L405.88 380.99C406.524 380.304 407.014 379.716 407.336 379.198C407.672 378.68 407.84 378.106 407.84 377.476C407.84 375.852 406.538 374.606 404.774 374.606C402.884 374.606 401.666 376.048 401.666 377.56C401.666 377.84 401.694 378.106 401.764 378.358H403.262C403.22 378.078 403.192 377.84 403.192 377.644C403.192 376.692 403.822 375.964 404.76 375.964C405.698 375.964 406.3 376.65 406.3 377.588C406.3 378.372 405.852 379.044 404.83 380.122L401.54 383.664V384H408.162V382.712H404.256ZM417.024 381.116H415.764V378.274H414.28V381.116H411.522L414.14 374.76H412.614L409.66 381.984V382.39H414.28V384H415.764V382.39H417.024V381.116ZM424.686 381.032C424.686 380.234 424.448 379.59 423.972 379.1C423.496 378.61 422.922 378.302 422.236 378.19L424.476 375.166V374.76H418.722V376.118H422.166L420.01 379.016V379.422H421.032C422.39 379.422 423.16 379.996 423.16 381.046C423.16 382.096 422.376 382.796 421.27 382.796C420.318 382.796 419.66 382.278 419.1 381.424L418.064 382.152C418.68 383.342 419.814 384.154 421.312 384.154C423.132 384.154 424.686 382.908 424.686 381.032ZM433.039 380.962C433.039 379.212 431.611 377.868 430.001 377.868C429.847 377.868 429.721 377.882 429.595 377.91L431.821 374.76H430.071L427.761 378.022C427.439 378.484 427.201 378.834 427.047 379.086C426.893 379.338 426.767 379.618 426.655 379.94C426.557 380.248 426.501 380.584 426.501 380.948C426.459 382.768 428.013 384.182 429.763 384.154C431.527 384.154 433.039 382.768 433.039 380.962ZM431.569 380.962C431.569 381.48 431.387 381.928 431.037 382.278C430.687 382.628 430.267 382.796 429.763 382.796C429.245 382.796 428.825 382.628 428.475 382.278C428.125 381.928 427.957 381.48 427.957 380.962C427.957 380.444 428.125 380.01 428.475 379.66C428.825 379.31 429.245 379.128 429.763 379.128C430.267 379.128 430.687 379.31 431.037 379.66C431.387 380.01 431.569 380.444 431.569 380.962ZM446.19 381.116H444.93V378.274H443.446V381.116H440.688L443.306 374.76H441.78L438.826 381.984V382.39H443.446V384H444.93V382.39H446.19V381.116ZM447.166 374.76V376.09H451.506L447.432 384H449.042L453.508 375.166V374.76H447.166ZM461.35 381.592C461.35 380.416 460.566 379.646 459.348 379.198C460.37 378.652 460.916 377.938 460.916 376.972C460.916 376.23 460.636 375.642 460.09 375.236C459.544 374.816 458.844 374.606 458.004 374.606C457.15 374.606 456.45 374.816 455.89 375.236C455.344 375.642 455.064 376.23 455.064 376.972C455.064 377.966 455.624 378.652 456.632 379.198C455.4 379.646 454.63 380.416 454.63 381.592C454.63 383.146 456.016 384.154 458.004 384.154C459.978 384.154 461.35 383.146 461.35 381.592ZM456.478 377.028C456.478 376.286 457.108 375.824 458.004 375.824C458.886 375.824 459.502 376.286 459.502 377.028C459.502 377.714 459.04 378.078 457.99 378.526C456.94 378.064 456.478 377.7 456.478 377.028ZM459.852 381.536C459.852 382.376 459.194 382.922 458.004 382.922C456.814 382.922 456.128 382.376 456.128 381.536C456.128 380.71 456.758 380.276 457.99 379.842C459.222 380.29 459.852 380.696 459.852 381.536ZM463.432 379.296C463.432 382.026 464.594 384.154 466.96 384.154C469.34 384.154 470.474 382.026 470.474 379.296C470.474 377.882 470.18 376.748 469.578 375.894C468.99 375.04 468.122 374.606 466.96 374.606C465.798 374.606 464.93 375.04 464.328 375.908C463.726 376.762 463.432 377.896 463.432 379.296ZM468.934 379.31C468.934 381.494 468.318 382.796 466.96 382.796C465.602 382.796 464.972 381.494 464.972 379.31C464.972 377.084 465.63 375.964 466.96 375.964C468.276 375.964 468.934 377.084 468.934 379.31ZM479.612 382.712L481.236 380.99C481.88 380.304 482.37 379.716 482.692 379.198C483.028 378.68 483.196 378.106 483.196 377.476C483.196 375.852 481.894 374.606 480.13 374.606C478.24 374.606 477.022 376.048 477.022 377.56C477.022 377.84 477.05 378.106 477.12 378.358H478.618C478.576 378.078 478.548 377.84 478.548 377.644C478.548 376.692 479.178 375.964 480.116 375.964C481.054 375.964 481.656 376.65 481.656 377.588C481.656 378.372 481.208 379.044 480.186 380.122L476.896 383.664V384H483.518V382.712H479.612ZM492.38 381.116H491.12V378.274H489.636V381.116H486.878L489.496 374.76H487.97L485.016 381.984V382.39H489.636V384H491.12V382.39H492.38V381.116ZM500.293 380.962C500.293 379.212 498.865 377.868 497.255 377.868C497.101 377.868 496.975 377.882 496.849 377.91L499.075 374.76H497.325L495.015 378.022C494.693 378.484 494.455 378.834 494.301 379.086C494.147 379.338 494.021 379.618 493.909 379.94C493.811 380.248 493.755 380.584 493.755 380.948C493.713 382.768 495.267 384.182 497.017 384.154C498.781 384.154 500.293 382.768 500.293 380.962ZM498.823 380.962C498.823 381.48 498.641 381.928 498.291 382.278C497.941 382.628 497.521 382.796 497.017 382.796C496.499 382.796 496.079 382.628 495.729 382.278C495.379 381.928 495.211 381.48 495.211 380.962C495.211 380.444 495.379 380.01 495.729 379.66C496.079 379.31 496.499 379.128 497.017 379.128C497.521 379.128 497.941 379.31 498.291 379.66C498.641 380.01 498.823 380.444 498.823 380.962ZM508.838 381.592C508.838 380.416 508.054 379.646 506.836 379.198C507.858 378.652 508.404 377.938 508.404 376.972C508.404 376.23 508.124 375.642 507.578 375.236C507.032 374.816 506.332 374.606 505.492 374.606C504.638 374.606 503.938 374.816 503.378 375.236C502.832 375.642 502.552 376.23 502.552 376.972C502.552 377.966 503.112 378.652 504.12 379.198C502.888 379.646 502.118 380.416 502.118 381.592C502.118 383.146 503.504 384.154 505.492 384.154C507.466 384.154 508.838 383.146 508.838 381.592ZM503.966 377.028C503.966 376.286 504.596 375.824 505.492 375.824C506.374 375.824 506.99 376.286 506.99 377.028C506.99 377.714 506.528 378.078 505.478 378.526C504.428 378.064 503.966 377.7 503.966 377.028ZM507.34 381.536C507.34 382.376 506.682 382.922 505.492 382.922C504.302 382.922 503.616 382.376 503.616 381.536C503.616 380.71 504.246 380.276 505.478 379.842C506.71 380.29 507.34 380.696 507.34 381.536Z" fill="white"/>
<path d="M589.417 252.974H601.584V274.837H589.417V252.974Z" fill="#FF5F00"/>
<path d="M581.189 285.841V283.523C581.189 282.635 580.648 282.056 579.721 282.056C579.258 282.056 578.756 282.21 578.408 282.712C578.138 282.287 577.751 282.056 577.172 282.056C576.786 282.056 576.4 282.171 576.09 282.596V282.133H575.279V285.841H576.09V283.794C576.09 283.137 576.438 282.828 576.979 282.828C577.52 282.828 577.79 283.176 577.79 283.794V285.841H578.601V283.794C578.601 283.137 578.987 282.828 579.49 282.828C580.03 282.828 580.301 283.176 580.301 283.794V285.841H581.189ZM593.202 282.133H591.889V281.013H591.078V282.133H590.344V282.867H591.077V284.566C591.077 285.416 591.425 285.918 592.352 285.918C592.7 285.918 593.086 285.802 593.357 285.648L593.125 284.953C592.893 285.107 592.623 285.146 592.429 285.146C592.043 285.146 591.889 284.914 591.889 284.528V282.867H593.202V282.133ZM600.077 282.055C599.614 282.055 599.305 282.287 599.112 282.596V282.133H598.301V285.841H599.112V283.755C599.112 283.137 599.382 282.79 599.884 282.79C600.039 282.79 600.232 282.828 600.386 282.867L600.618 282.094C600.464 282.056 600.232 282.056 600.077 282.056V282.055ZM589.687 282.442C589.301 282.171 588.76 282.056 588.18 282.056C587.254 282.056 586.636 282.519 586.636 283.253C586.636 283.871 587.099 284.219 587.91 284.335L588.296 284.373C588.721 284.45 588.953 284.566 588.953 284.759C588.953 285.03 588.644 285.223 588.103 285.223C587.562 285.223 587.138 285.03 586.867 284.837L586.481 285.455C586.906 285.764 587.485 285.918 588.064 285.918C589.146 285.918 589.764 285.416 589.764 284.721C589.764 284.064 589.262 283.716 588.489 283.601L588.103 283.562C587.756 283.523 587.485 283.446 587.485 283.214C587.485 282.944 587.756 282.79 588.18 282.79C588.644 282.79 589.108 282.983 589.339 283.098L589.687 282.442ZM611.241 282.056C610.777 282.056 610.468 282.287 610.275 282.596V282.133H609.464V285.841H610.275V283.755C610.275 283.137 610.545 282.79 611.047 282.79C611.202 282.79 611.395 282.828 611.549 282.867L611.781 282.094C611.627 282.056 611.395 282.056 611.241 282.056ZM600.889 283.987C600.889 285.107 601.661 285.918 602.859 285.918C603.399 285.918 603.785 285.802 604.172 285.493L603.785 284.837C603.477 285.068 603.168 285.184 602.82 285.184C602.163 285.184 601.7 284.721 601.7 283.987C601.7 283.292 602.163 282.828 602.82 282.79C603.168 282.79 603.477 282.905 603.785 283.137L604.172 282.481C603.785 282.171 603.399 282.056 602.859 282.056C601.661 282.056 600.889 282.867 600.889 283.987ZM608.382 283.987V282.133H607.571V282.596C607.301 282.249 606.914 282.056 606.412 282.056C605.369 282.056 604.558 282.867 604.558 283.987C604.558 285.107 605.369 285.918 606.412 285.918C606.953 285.918 607.339 285.725 607.571 285.377V285.841H608.382V283.987ZM605.408 283.987C605.408 283.33 605.833 282.79 606.528 282.79C607.185 282.79 607.648 283.292 607.648 283.987C607.648 284.644 607.185 285.184 606.528 285.184C605.833 285.146 605.408 284.644 605.408 283.987ZM595.713 282.056C594.631 282.056 593.858 282.828 593.858 283.987C593.858 285.146 594.631 285.918 595.751 285.918C596.292 285.918 596.833 285.764 597.258 285.416L596.871 284.837C596.562 285.068 596.176 285.223 595.79 285.223C595.288 285.223 594.786 284.991 594.67 284.334H597.412V284.026C597.451 282.828 596.756 282.056 595.713 282.056H595.713ZM595.713 282.751C596.215 282.751 596.563 283.06 596.64 283.639H594.708C594.786 283.137 595.133 282.751 595.713 282.751ZM615.837 283.987V280.665H615.026V282.596C614.755 282.249 614.369 282.056 613.867 282.056C612.824 282.056 612.013 282.867 612.013 283.987C612.013 285.107 612.824 285.918 613.867 285.918C614.408 285.918 614.794 285.725 615.026 285.377V285.841H615.837V283.987ZM612.863 283.987C612.863 283.33 613.288 282.79 613.983 282.79C614.64 282.79 615.103 283.292 615.103 283.987C615.103 284.644 614.64 285.184 613.983 285.184C613.288 285.146 612.863 284.644 612.863 283.987ZM585.747 283.987V282.133H584.936V282.596C584.665 282.249 584.279 282.056 583.777 282.056C582.734 282.056 581.923 282.867 581.923 283.987C581.923 285.107 582.734 285.918 583.777 285.918C584.318 285.918 584.704 285.725 584.936 285.377V285.841H585.747V283.987ZM582.734 283.987C582.734 283.33 583.159 282.79 583.854 282.79C584.511 282.79 584.975 283.292 584.975 283.987C584.975 284.644 584.511 285.184 583.854 285.184C583.159 285.146 582.734 284.644 582.734 283.987Z" fill="white"/>
<path d="M590.189 263.906C590.189 259.464 592.275 255.524 595.48 252.974C593.124 251.12 590.15 250 586.906 250C579.219 250 573 256.219 573 263.906C573 271.592 579.219 277.811 586.906 277.811C590.15 277.811 593.124 276.691 595.48 274.837C592.275 272.326 590.189 268.347 590.189 263.906Z" fill="#EB001B"/>
<path d="M618 263.906C618 271.592 611.781 277.811 604.094 277.811C600.849 277.811 597.875 276.691 595.519 274.837C598.764 272.287 600.811 268.347 600.811 263.906C600.811 259.464 598.725 255.524 595.519 252.974C597.875 251.12 600.849 250 604.094 250C611.781 250 618 256.257 618 263.906H618Z" fill="#F79E1B"/>
<g filter="url(#filter0_bd_621_2)">
<rect x="490" y="292" width="315" height="184" rx="30" fill="url(#paint3_linear_621_2)" shape-rendering="crispEdges"/>
<rect x="490.2" y="292.2" width="314.6" height="183.6" rx="29.8" stroke="#A545CB" stroke-width="0.4" shape-rendering="crispEdges"/>
</g>
<mask id="mask1_621_2" style="mask-type:alpha" maskUnits="userSpaceOnUse" x="490" y="292" width="315" height="184">
<rect x="490" y="292" width="315" height="184" rx="30" fill="#BE82DD"/>
</mask>
<g mask="url(#mask1_621_2)">
<ellipse opacity="0.1" cx="514.5" cy="505" rx="160.5" ry="113" fill="black"/>
<ellipse opacity="0.08" cx="780.5" cy="263" rx="160.5" ry="113" fill="black"/>
</g>
<defs>
<filter id="filter0_bd_621_2" x="484" y="286" width="327" height="198" filterUnits="userSpaceOnUse" color-interpolation-filters="sRGB">
<feFlood flood-opacity="0" result="BackgroundImageFix"/>
<feGaussianBlur in="BackgroundImageFix" stdDeviation="3"/>
<feComposite in2="SourceAlpha" operator="in" result="effect1_backgroundBlur_621_2"/>
<feColorMatrix in="SourceAlpha" type="matrix" values="0 0 0 0 0 0 0 0 0 0 0 0 0 0 0 0 0 0 127 0" result="hardAlpha"/>
<feOffset dy="4"/>
<feGaussianBlur stdDeviation="2"/>
<feComposite in2="hardAlpha" operator="out"/>
<feColorMatrix type="matrix" values="0 0 0 0 0 0 0 0 0 0 0 0 0 0 0 0 0 0 0.1 0"/>
<feBlend mode="normal" in2="effect1_backgroundBlur_621_2" result="effect2_dropShadow_621_2"/>
<feBlend mode="normal" in="SourceGraphic" in2="effect2_dropShadow_621_2" result="shape"/>
</filter>
<linearGradient id="paint0_linear_621_2" x1="1177.5" y1="835" x2="792.5" y2="-388" gradientUnits="userSpaceOnUse">
<stop stop-color="#EFAB18"/>
<stop offset="1" stop-color="#FFF0D0"/>
</linearGradient>
<linearGradient id="paint1_linear_621_2" x1="424.5" y1="728" x2="1076.67" y2="-170.402" gradientUnits="userSpaceOnUse">
<stop stop-color="#CD8BE6"/>
<stop offset="1" stop-color="#4B95FF"/>
</linearGradient>
<linearGradient id="paint2_linear_621_2" x1="388.397" y1="195.947" x2="421.512" y2="453.882" gradientUnits="userSpaceOnUse">
<stop stop-color="#BE82DD"/>
<stop offset="1" stop-color="#B22AE3"/>
</linearGradient>
<linearGradient id="paint3_linear_621_2" x1="545.397" y1="262.947" x2="578.512" y2="520.882" gradientUnits="userSpaceOnUse">
<stop stop-color="#D9B2ED" stop-opacity="0.3"/>
<stop offset="1" stop-color="#D294F2" stop-opacity="0.3"/>
</linearGradient>
</defs>
</svg>
