<svg width="33" height="34" viewBox="0 0 33 34" fill="none" xmlns="http://www.w3.org/2000/svg">
<rect y="0.170898" width="33" height="33" rx="10" fill="url(#paint0_linear_213_872)" fill-opacity="0.5"/>
<rect x="0.5" y="0.670898" width="32" height="32" rx="9.5" stroke="url(#paint1_linear_213_872)" stroke-opacity="0.6"/>
<path d="M21.7852 15.6494C21.291 16.0361 20.668 16.5088 18.4766 18.0986C18.0469 18.4209 17.252 19.1299 16.5 19.1299C15.7266 19.1299 14.9531 18.4209 14.502 18.0986C12.3105 16.5088 11.6875 16.0361 11.1934 15.6494C11.1074 15.585 11 15.6494 11 15.7568V20.1396C11 20.7197 11.4512 21.1709 12.0312 21.1709H20.9688C21.5273 21.1709 22 20.7197 22 20.1396V15.7568C22 15.6494 21.8711 15.585 21.7852 15.6494ZM16.5 18.4209C16.9941 18.4424 17.7031 17.7979 18.0684 17.54C20.9258 15.4775 21.1406 15.2842 21.7852 14.7686C21.9141 14.6826 22 14.5322 22 14.3604V13.9521C22 13.3936 21.5273 12.9209 20.9688 12.9209H12.0312C11.4512 12.9209 11 13.3936 11 13.9521V14.3604C11 14.5322 11.0645 14.6826 11.1934 14.7686C11.8379 15.2842 12.0527 15.4775 14.9102 17.54C15.2754 17.7979 15.9844 18.4424 16.5 18.4209Z" fill="#4E92F9"/>
<defs>
<linearGradient id="paint0_linear_213_872" x1="0.861264" y1="2.01128" x2="31.5445" y2="35.7659" gradientUnits="userSpaceOnUse">
<stop stop-color="white" stop-opacity="0"/>
<stop offset="1" stop-color="white"/>
</linearGradient>
<linearGradient id="paint1_linear_213_872" x1="12.9945" y1="15.9638" x2="32.931" y2="37.5043" gradientUnits="userSpaceOnUse">
<stop stop-color="white"/>
<stop offset="1" stop-color="#F3F3F3" stop-opacity="0.42"/>
</linearGradient>
</defs>
</svg>
