<svg width="100" height="49" viewBox="0 0 100 49" fill="none" xmlns="http://www.w3.org/2000/svg">
<g clip-path="url(#clip0_816_40)">
<mask id="mask0_816_40" style="mask-type:luminance" maskUnits="userSpaceOnUse" x="0" y="0" width="100" height="49">
<path d="M100 0.483887H0V48.5162H100V0.483887Z" fill="white"/>
</mask>
<g mask="url(#mask0_816_40)">
<path d="M6.84622 27.7946L8.16697 26.9321L9.59555 26.3121L10.4042 26.0695L11.2128 25.9348L11.9945 25.8809H12.7761L13.6656 25.9348L14.5551 26.1234L16.0106 26.6086L17.547 27.552L18.8678 28.6302L19.5686 29.6005L20.0807 30.4631L20.4581 31.2178L20.7007 31.8916L21.105 33.6706V35.4496V43.3472L20.0807 43.2124L19.0565 42.835L18.167 42.0534L17.6009 41.2717L17.1966 40.1935L17.0888 39.2232V37.2016L17.1158 35.207L17.0888 34.1827L16.954 33.2124L16.2532 31.8916L15.795 31.2178L15.202 30.7865L14.4473 30.3553L13.7195 30.0857L12.9109 29.8701H12.1023L10.9702 30.0857L9.94595 30.5439L8.92169 31.3795L8.16697 32.3768L7.6818 33.7784V35.4496V38.765L7.57398 40.4631L6.84622 41.8647L6.17236 42.4846L5.39069 42.9968L4.52816 43.2124L3.63867 43.3472V41.8647V39.7353V35.4496L3.74649 33.0507L4.04298 31.8916L4.4473 30.9752L4.85161 30.0857L5.4446 29.2232L6.84622 27.7946Z" fill="url(#paint0_linear_816_40)"/>
<path d="M63.585 5.6651L66.8734 4.26348L68.5715 3.77831L70.6739 3.34708L72.9111 3.10449H75.4179L77.3855 3.29317L79.3801 3.69748L81.2939 4.20961L83.8276 5.17993L86.2535 6.39287L88.7602 8.11794L91.0513 10.1934L92.9111 12.4576L94.4206 14.8026L95.6605 17.6328L96.1726 18.9805L96.6039 20.3282L97.116 22.9966L97.3316 25.6382L97.116 28.3066L96.7386 30.8134L96.0917 32.8888L95.337 34.7487L94.3397 36.5007L93.1537 38.064L91.7791 39.6543L90.1618 41.002L88.4098 41.9993L87.1429 42.5923L85.8491 43.0775L84.4745 43.347H83.1807L81.806 43.1853L80.5392 42.7541L78.6793 41.4603L77.9516 40.4091L77.2238 39.3578L76.8734 38.2258L76.7386 37.0128L76.8734 35.8538L77.2238 34.7487L77.8977 33.6975L78.5985 32.7541L79.3532 31.8107L79.9192 30.7864L80.4044 29.7352L80.62 28.4144L80.7278 27.3093L80.5392 25.9077L80.1888 24.7487L79.7305 23.7783L79.1915 22.7541L78.3828 21.6759L76.5769 19.9508L75.2022 19.0344L73.7467 18.2797L72.1025 17.7675L70.4853 17.3902L68.8411 17.2824H67.1968L65.5796 17.5789L64.0432 17.9832L61.1591 19.0883L58.3828 20.409L55.5257 21.7568L54.151 22.4037L53.2615 22.6732L52.426 22.6193L52.0756 22.1341L52.0215 21.4872L52.3719 19.9239L52.8571 18.4144L53.4231 16.878L54.0971 15.3956L55.93 12.4845L58.1133 9.76214L60.6739 7.5519L63.585 5.6651Z" fill="url(#paint1_linear_816_40)"/>
<path fill-rule="evenodd" clip-rule="evenodd" d="M31.6712 43.3203C36.5093 43.3203 40.4313 39.4103 40.4313 34.5872C40.4313 29.764 36.5093 25.854 31.6712 25.854C26.8332 25.854 22.9111 29.764 22.9111 34.5872C22.9111 39.4103 26.8332 43.3203 31.6712 43.3203ZM32.399 29.8971L31.5904 29.8702L30.9435 29.8971L30.3774 30.0589L29.8653 30.2206L29.3262 30.5171L28.7871 30.8675L28.275 31.3527L27.7359 32.0265L27.4394 32.5925L27.1968 33.1047L27.0621 33.7246L27.0082 34.1559V34.6141V35.0993L27.0621 35.5306L27.2508 36.0696L27.3586 36.3931L27.4933 36.6626L27.709 37.1209L28.2481 37.7947L28.7871 38.2799L29.3801 38.6842L30.1079 39.0616L30.9974 39.2502H32.5338L33.3694 39.0076L34.0163 38.6842L34.744 38.226L35.337 37.6869L35.6874 37.1478L35.957 36.6626L36.2535 35.9349L36.3613 35.4497L36.4691 34.8297V34.2098L36.3613 33.6977L36.1995 33.0508L35.957 32.5117L35.4448 31.6761L34.8249 31.0292L34.0971 30.5171L33.3424 30.1397L32.399 29.8971Z" fill="url(#paint2_linear_816_40)"/>
<path fill-rule="evenodd" clip-rule="evenodd" d="M51.0243 43.3203C55.8625 43.3203 59.7844 39.4103 59.7844 34.5872C59.7844 29.764 55.8625 25.854 51.0243 25.854C46.1862 25.854 42.2642 29.764 42.2642 34.5872C42.2642 39.4103 46.1862 43.3203 51.0243 43.3203ZM51.752 29.8971L50.9434 29.8702L50.2965 29.8971L49.7305 30.0589L49.2183 30.2206L48.6793 30.5171L48.1402 30.8675L47.628 31.3527L47.089 32.0265L46.7925 32.5925L46.5499 33.1047L46.4151 33.7246L46.3612 34.1559V34.6141V35.0993L46.4151 35.5306L46.6038 36.0696L46.7116 36.3931L46.8464 36.6626L47.062 37.1209L47.6011 37.7947L48.1402 38.2799L48.7332 38.6842L49.4609 39.0616L50.3504 39.2502H51.8868L52.7224 39.0076L53.3693 38.6842L54.097 38.226L54.69 37.6869L55.0404 37.1478L55.31 36.6626L55.6065 35.9349L55.7143 35.4497L55.8221 34.8297V34.2098L55.7143 33.6977L55.5526 33.0508L55.31 32.5117L54.7979 31.6761L54.1779 31.0292L53.4501 30.5171L52.6954 30.1397L51.752 29.8971Z" fill="url(#paint3_linear_816_40)"/>
<path d="M73.9621 26.6086L74.016 25.8809H69.6494L69.1643 25.9348L68.3826 26.0965L67.4661 26.366L66.5227 26.7703L65.4446 27.4172L64.6899 28.0102L64.1777 28.4954L63.5039 29.2501L62.83 30.2474L62.3179 31.1908L61.8597 32.5385L61.644 33.9402V43.3741H61.7519L62.264 43.3202L62.9648 43.1585L63.3961 42.9698L64.0969 42.5385L64.3664 42.3499L64.6899 41.9725L64.9325 41.676L65.0942 41.4334L65.2829 41.1639L65.4176 40.8404L65.6063 40.1666L65.7141 39.7084V33.9402L65.795 33.6706L65.9298 33.1046L66.1723 32.5385L66.5767 31.8647L66.954 31.3526L67.4392 30.8943L68.1939 30.4092L68.8678 30.1396L69.5416 29.9509L70.485 29.8431L71.2128 29.6814L71.8327 29.4658L72.4527 29.0345L73.0187 28.4954L73.4769 27.9024L73.7734 27.3094L73.9621 26.6086Z" fill="url(#paint4_linear_816_40)"/>
</g>
</g>
<defs>
<linearGradient id="paint0_linear_816_40" x1="3.63867" y1="25.8809" x2="24.7219" y2="34.7291" gradientUnits="userSpaceOnUse">
<stop stop-color="#C381DB"/>
<stop offset="1" stop-color="#4E92F9"/>
</linearGradient>
<linearGradient id="paint1_linear_816_40" x1="48.3188" y1="31.9934" x2="78.2351" y2="-7.42654" gradientUnits="userSpaceOnUse">
<stop stop-color="#C381DB"/>
<stop offset="1" stop-color="#4E92F9"/>
</linearGradient>
<linearGradient id="paint2_linear_816_40" x1="22.9111" y1="25.854" x2="44.0398" y2="34.7487" gradientUnits="userSpaceOnUse">
<stop stop-color="#C381DB"/>
<stop offset="1" stop-color="#4E92F9"/>
</linearGradient>
<linearGradient id="paint3_linear_816_40" x1="42.2642" y1="25.854" x2="63.393" y2="34.7487" gradientUnits="userSpaceOnUse">
<stop stop-color="#C381DB"/>
<stop offset="1" stop-color="#4E92F9"/>
</linearGradient>
<linearGradient id="paint4_linear_816_40" x1="61.644" y1="25.8809" x2="77.7864" y2="30.6721" gradientUnits="userSpaceOnUse">
<stop stop-color="#C381DB"/>
<stop offset="1" stop-color="#4E92F9"/>
</linearGradient>
<clipPath id="clip0_816_40">
<rect width="100" height="48.0323" fill="white" transform="translate(0 0.483887)"/>
</clipPath>
</defs>
</svg>
