<svg width="95" height="77" viewBox="0 0 95 77" fill="none" xmlns="http://www.w3.org/2000/svg">
<path d="M92.3611 70.0493C92.3611 71.8953 90.8646 73.3918 89.0185 73.3918L55.9445 73.3918C54.0984 73.3918 52.6019 71.8953 52.6019 70.0492L52.6019 35.5694C52.6019 34.927 52.787 34.2982 53.135 33.7583L71.5841 5.13953C72.1995 4.18485 73.2577 3.60803 74.3935 3.60803L78.1827 3.60803C80.6168 3.60803 82.2347 6.12657 81.2227 8.34035L73.9528 24.243C71.3428 29.9523 75.5153 36.4474 81.7928 36.4474L89.0185 36.4474C90.8646 36.4474 92.3611 37.9439 92.3611 39.79L92.3611 70.0493Z" stroke="url(#paint0_linear_843_256)" stroke-width="5.27778"/>
<path d="M42.3982 70.0493C42.3982 71.8953 40.9017 73.3918 39.0556 73.3918L5.98157 73.3918C4.13551 73.3918 2.63898 71.8953 2.63898 70.0492L2.63898 35.5694C2.63898 34.927 2.82409 34.2982 3.17215 33.7583L21.6212 5.13953C22.2366 4.18485 23.2948 3.60803 24.4306 3.60803L28.2198 3.60803C30.6539 3.60803 32.2718 6.12657 31.2598 8.34035L23.9899 24.243C21.3799 29.9523 25.5524 36.4474 31.8299 36.4474L39.0556 36.4474C40.9017 36.4474 42.3982 37.9439 42.3982 39.79L42.3982 70.0493Z" stroke="url(#paint1_linear_843_256)" stroke-width="5.27778"/>
<defs>
<linearGradient id="paint0_linear_843_256" x1="72.4815" y1="76.0307" x2="72.4815" y2="0.969145" gradientUnits="userSpaceOnUse">
<stop stop-color="#B4D2FF"/>
<stop offset="1" stop-color="#D0E3FF"/>
</linearGradient>
<linearGradient id="paint1_linear_843_256" x1="22.5186" y1="76.0307" x2="22.5186" y2="0.969145" gradientUnits="userSpaceOnUse">
<stop stop-color="#B4D2FF"/>
<stop offset="1" stop-color="#D0E3FF"/>
</linearGradient>
</defs>
</svg>
